<?xml version="1.0" standalone="no"?>
<!DOCTYPE svg PUBLIC "-//W3C//DTD SVG 20010904//EN"
 "http://www.w3.org/TR/2001/REC-SVG-20010904/DTD/svg10.dtd">
<svg version="1.0" xmlns="http://www.w3.org/2000/svg"
 width="8333.000000pt" height="8333.000000pt" viewBox="0 0 8333.000000 8333.000000"
 preserveAspectRatio="xMidYMid meet">

<g transform="translate(0.000000,8333.000000) scale(0.100000,-0.100000)"
fill="#000000" stroke="none">
<path d="M48685 58259 c-308 -37 -1154 -135 -1805 -209 -239 -27 -554 -63
-700 -80 -146 -17 -362 -42 -480 -55 -118 -13 -393 -45 -610 -69 -217 -25
-471 -55 -565 -66 -93 -11 -348 -40 -565 -65 -217 -24 -649 -74 -960 -110
-311 -36 -761 -88 -1000 -115 -239 -27 -554 -63 -700 -80 -264 -30 -345 -40
-1090 -124 -217 -25 -453 -52 -525 -61 -71 -9 -326 -38 -565 -65 -239 -27
-689 -79 -1000 -115 -311 -36 -761 -88 -1000 -115 -239 -27 -534 -61 -655 -75
-121 -14 -321 -37 -445 -51 -124 -13 -277 -31 -340 -39 -63 -8 -279 -33 -480
-55 -201 -22 -417 -47 -480 -55 -63 -8 -279 -33 -480 -55 -201 -22 -417 -47
-480 -55 -63 -8 -176 -21 -250 -30 -74 -8 -292 -33 -485 -55 -192 -22 -546
-63 -785 -90 -647 -73 -1193 -136 -1480 -170 -140 -16 -358 -41 -485 -55 -126
-14 -342 -39 -480 -55 -137 -17 -410 -48 -605 -70 -341 -39 -556 -64 -1130
-130 -146 -17 -461 -53 -700 -80 -769 -87 -1222 -139 -1355 -155 -71 -9 -308
-36 -525 -60 -217 -25 -489 -56 -605 -70 -115 -14 -367 -43 -560 -65 -192 -22
-586 -67 -875 -100 -289 -33 -721 -83 -960 -110 -679 -77 -1202 -137 -1475
-169 -137 -17 -356 -42 -485 -56 -129 -14 -308 -35 -398 -46 -89 -10 -359 -41
-600 -69 -767 -87 -1221 -139 -1437 -165 -115 -13 -282 -32 -370 -40 -88 -9
-194 -23 -235 -31 -322 -61 -517 -395 -406 -698 50 -139 36 -123 506 -551 31
-27 116 -106 190 -175 74 -69 159 -147 190 -175 30 -27 82 -76 115 -107 33
-31 69 -65 81 -75 12 -10 67 -61 124 -113 57 -52 111 -102 120 -110 9 -8 73
-67 141 -130 68 -63 148 -137 179 -165 30 -27 62 -57 70 -65 8 -8 67 -62 130
-120 63 -58 124 -114 136 -125 11 -11 67 -63 125 -115 166 -152 383 -352 400
-369 8 -9 62 -59 120 -111 111 -102 220 -202 309 -285 96 -88 451 -415 560
-514 110 -101 205 -189 305 -283 33 -31 69 -65 81 -75 12 -10 67 -61 124 -113
57 -52 112 -103 124 -113 12 -10 48 -44 81 -75 33 -31 90 -84 125 -116 36 -33
94 -87 130 -120 36 -34 90 -83 120 -111 31 -27 116 -106 190 -175 74 -69 159
-147 190 -175 30 -27 82 -76 115 -107 33 -31 71 -66 85 -78 14 -12 48 -43 75
-68 28 -26 106 -99 175 -162 69 -63 132 -122 140 -130 8 -8 40 -37 70 -65 31
-27 114 -104 185 -170 72 -66 155 -143 185 -171 30 -27 78 -71 105 -96 28 -26
64 -59 80 -74 17 -15 75 -68 130 -119 55 -50 112 -103 126 -116 15 -13 82 -76
150 -139 68 -63 148 -137 179 -165 30 -27 62 -57 70 -65 8 -8 67 -62 130 -120
63 -58 124 -114 136 -125 20 -19 216 -199 239 -220 29 -26 143 -132 270 -250
77 -71 164 -152 195 -180 30 -27 62 -57 70 -65 8 -8 40 -37 70 -65 30 -27 107
-98 170 -156 63 -58 210 -193 325 -299 116 -106 217 -200 226 -209 8 -9 62
-59 119 -111 58 -52 134 -122 170 -156 36 -33 216 -199 400 -369 184 -170 342
-315 351 -324 8 -9 62 -59 119 -111 58 -52 134 -122 170 -156 36 -33 216 -199
400 -369 184 -170 364 -336 400 -370 36 -34 92 -86 125 -116 33 -30 67 -61 75
-69 8 -8 42 -40 75 -69 33 -30 94 -87 136 -125 41 -39 122 -114 179 -166 137
-124 238 -217 330 -304 41 -39 104 -98 140 -131 152 -141 278 -256 297 -272
11 -10 69 -64 129 -120 60 -56 118 -110 130 -120 12 -10 70 -63 130 -119 60
-56 123 -113 139 -128 17 -15 57 -53 90 -84 33 -32 116 -109 185 -172 69 -63
154 -142 190 -176 36 -33 94 -87 130 -120 36 -32 67 -61 70 -64 3 -3 61 -57
130 -120 69 -63 127 -117 130 -120 3 -3 95 -88 205 -189 110 -102 258 -239
330 -305 141 -131 219 -204 305 -282 30 -28 87 -81 127 -118 40 -38 81 -75 91
-84 18 -16 219 -202 267 -247 11 -11 45 -42 75 -70 30 -27 110 -101 178 -164
68 -63 132 -122 142 -131 10 -9 74 -68 142 -131 68 -64 188 -175 268 -249 80
-73 200 -185 268 -249 68 -63 133 -123 144 -133 11 -9 73 -66 137 -125 63 -59
143 -133 175 -163 33 -30 70 -64 81 -75 12 -11 48 -44 81 -74 32 -30 91 -84
130 -120 38 -36 121 -113 184 -171 62 -58 123 -114 135 -125 11 -11 46 -42 76
-70 30 -27 115 -106 189 -175 74 -69 164 -152 200 -185 35 -33 94 -87 130
-121 36 -33 94 -87 130 -120 36 -32 67 -62 70 -65 3 -3 73 -68 155 -144 83
-76 204 -189 269 -249 66 -61 152 -140 190 -176 39 -36 102 -95 141 -131 38
-36 94 -87 124 -115 30 -27 87 -80 127 -117 40 -38 82 -77 95 -88 20 -17 212
-195 264 -244 11 -11 48 -45 80 -74 33 -30 94 -87 135 -125 42 -39 127 -118
189 -176 63 -58 124 -114 135 -125 12 -11 113 -105 226 -209 113 -104 239
-221 280 -260 41 -39 131 -123 200 -186 69 -63 157 -144 195 -180 39 -37 101
-95 140 -131 38 -35 72 -66 75 -69 3 -3 66 -61 140 -130 74 -69 164 -152 200
-186 36 -33 101 -94 145 -134 44 -40 85 -78 90 -84 6 -6 66 -63 135 -126 69
-63 154 -142 190 -176 36 -33 94 -87 130 -120 36 -32 72 -66 80 -74 8 -9 112
-105 230 -215 118 -109 276 -255 350 -324 74 -69 164 -153 200 -186 35 -33 96
-90 135 -126 38 -36 101 -94 140 -130 38 -35 104 -96 145 -135 41 -39 140
-131 220 -204 80 -74 174 -161 209 -194 79 -75 92 -88 166 -155 33 -30 94 -86
135 -126 130 -123 495 -463 524 -488 11 -10 50 -46 86 -81 36 -34 133 -125
215 -201 83 -77 157 -147 165 -155 8 -8 42 -39 75 -69 33 -30 94 -87 135 -126
41 -39 113 -106 160 -150 97 -90 198 -184 320 -300 47 -44 119 -111 160 -150
41 -38 109 -101 150 -140 109 -102 383 -359 470 -440 41 -38 108 -102 150
-142 41 -39 89 -84 106 -100 16 -15 102 -95 189 -178 87 -82 166 -157 176
-166 22 -19 325 -307 488 -464 490 -471 512 -492 629 -620 96 -105 166 -153
277 -190 72 -24 90 -27 195 -23 91 3 130 9 187 30 179 64 357 251 577 605 42
67 76 125 76 127 0 3 19 36 41 73 138 226 621 1182 904 1793 40 85 117 252
172 370 56 118 112 241 127 273 42 91 76 167 111 242 18 39 42 90 53 115 39
85 210 465 247 550 21 47 50 112 65 145 15 33 54 121 88 195 56 126 76 173
169 385 37 84 65 148 157 358 31 70 81 184 112 255 30 70 62 142 71 161 8 19
28 64 43 100 16 36 46 107 68 156 34 78 185 427 405 940 35 83 88 206 117 275
29 69 63 148 75 175 24 51 127 296 197 465 22 52 46 109 53 125 27 61 135 317
135 321 0 3 16 39 34 82 19 42 65 149 102 237 36 88 74 178 84 200 9 22 28 66
41 99 13 32 29 61 36 63 7 3 52 -16 100 -42 48 -26 162 -86 253 -133 91 -46
197 -101 235 -122 39 -21 129 -68 200 -105 72 -37 180 -93 240 -125 61 -32
173 -90 250 -130 77 -40 185 -96 240 -125 55 -29 159 -83 230 -120 72 -37 173
-90 225 -118 52 -27 196 -103 320 -167 124 -65 268 -140 320 -167 52 -28 172
-89 265 -138 94 -48 206 -107 250 -130 44 -23 143 -75 220 -115 183 -95 347
-181 464 -242 52 -28 203 -107 335 -175 133 -69 277 -144 321 -168 44 -23 157
-82 250 -130 94 -48 206 -107 250 -130 44 -23 143 -75 220 -115 169 -88 339
-176 460 -240 50 -26 158 -82 240 -125 147 -76 262 -136 420 -220 44 -23 157
-82 250 -130 94 -48 206 -107 250 -130 44 -23 143 -75 220 -115 169 -88 339
-176 460 -240 50 -26 158 -82 240 -125 83 -43 186 -97 230 -120 44 -23 139
-73 210 -110 72 -37 180 -93 240 -125 61 -32 169 -88 240 -125 72 -37 171 -89
220 -115 50 -26 167 -87 260 -136 94 -48 220 -114 280 -146 279 -149 430 -218
495 -229 257 -43 506 103 593 346 53 149 42 278 -38 455 -24 52 -96 214 -160
360 -64 146 -128 289 -141 318 -13 29 -24 54 -24 57 0 2 -13 32 -29 67 -16 35
-61 137 -101 228 -100 229 -132 301 -285 650 -42 96 -109 247 -147 335 -39 88
-94 214 -123 280 -206 466 -296 670 -357 810 -76 175 -78 179 -136 310 -22 50
-56 127 -76 173 -20 45 -52 119 -72 165 -46 105 -97 221 -140 320 -123 282
-251 570 -284 642 -15 33 -31 71 -35 83 -4 13 -20 50 -36 82 -16 33 -29 61
-29 64 0 3 -13 35 -30 70 -16 36 -41 93 -56 128 -14 34 -39 90 -54 123 -15 33
-78 175 -140 315 -62 140 -130 294 -151 343 -21 48 -39 89 -39 91 0 3 -13 33
-29 68 -16 35 -61 137 -101 228 -117 268 -168 383 -305 695 -54 121 -101 230
-106 243 -5 13 -21 49 -35 80 -15 31 -76 170 -136 307 -60 138 -123 278 -139
313 -16 34 -29 64 -29 66 0 3 -13 33 -29 68 -16 35 -61 137 -101 228 -39 91
-87 199 -105 240 -18 41 -49 112 -69 158 -20 45 -52 119 -72 165 -20 45 -51
116 -69 157 -18 41 -68 154 -110 250 -109 250 -122 280 -233 530 -84 189 -221
502 -292 667 -46 107 -149 217 -245 263 -52 25 -239 86 -590 192 -55 17 -134
41 -175 54 -41 13 -237 73 -435 134 -198 61 -423 130 -500 154 -77 25 -392
122 -700 216 -836 257 -1110 342 -1113 345 -2 1 24 108 58 236 33 129 103 398
155 599 52 201 112 435 135 520 22 85 76 295 120 465 147 569 168 650 210 810
73 280 97 374 166 640 36 143 84 325 104 405 21 80 64 244 95 365 31 121 65
251 76 290 12 45 19 102 19 163 0 102 -12 139 -115 372 -26 58 -60 134 -75
170 -16 36 -46 106 -68 155 -22 50 -71 162 -110 250 -38 88 -110 252 -159 365
-50 113 -152 345 -227 515 -75 171 -148 333 -161 362 -14 28 -25 54 -25 57 0
2 -13 33 -29 68 -16 35 -61 137 -101 228 -39 91 -87 200 -106 243 -34 77 -75
170 -138 315 -93 212 -173 395 -199 452 -11 25 -32 74 -48 110 -34 82 -84 195
-193 439 -47 106 -86 195 -86 197 0 2 -16 38 -35 80 -19 41 -35 77 -35 79 0 3
-13 34 -30 69 -16 36 -41 93 -56 128 -14 34 -39 90 -54 123 -15 33 -60 134
-100 225 -40 91 -89 203 -110 250 -21 47 -54 122 -74 168 -20 45 -51 117 -70
160 -19 42 -66 151 -106 242 -39 91 -88 201 -107 245 -19 44 -50 114 -68 155
-18 41 -77 174 -130 295 -54 121 -101 230 -106 243 -5 13 -20 47 -33 75 -13
29 -56 126 -96 217 -40 91 -105 239 -145 330 -178 402 -265 601 -265 606 0 2
-13 32 -29 66 -31 68 -129 288 -286 648 -19 44 -51 116 -70 160 -85 194 -123
281 -197 450 -79 179 -112 236 -172 296 -65 65 -155 117 -241 140 -55 15 -200
16 -310 3z m-146 -1111 c13 -35 338 -775 372 -846 16 -35 29 -65 29 -67 0 -3
168 -387 215 -490 7 -16 32 -72 54 -122 23 -51 59 -134 81 -183 22 -50 40 -92
40 -94 0 -3 13 -33 29 -68 16 -35 61 -137 101 -228 113 -260 163 -372 305
-695 53 -121 104 -238 113 -260 8 -22 19 -44 23 -50 4 -5 20 -41 35 -80 15
-38 30 -74 34 -80 4 -5 33 -71 65 -145 66 -157 98 -231 153 -355 99 -223 162
-367 162 -370 0 -2 17 -41 38 -87 21 -46 44 -99 52 -118 7 -19 17 -40 21 -45
4 -6 17 -35 29 -65 23 -57 223 -514 267 -610 14 -30 38 -84 53 -120 15 -36
103 -236 195 -445 92 -209 198 -452 237 -540 39 -88 87 -198 108 -245 21 -47
54 -121 73 -165 19 -44 51 -117 71 -162 20 -46 51 -118 70 -160 48 -110 90
-206 201 -458 54 -121 101 -231 107 -245 5 -14 18 -43 28 -65 60 -124 126
-291 117 -294 -5 -2 -40 2 -76 8 -36 7 -149 25 -251 41 -184 28 -625 98 -917
145 -146 24 -363 59 -558 90 -49 8 -160 26 -245 40 -85 13 -225 36 -310 49
-168 26 -642 102 -890 142 -85 14 -225 36 -310 50 -202 32 -290 46 -555 89
-121 19 -321 51 -445 70 -124 20 -308 50 -410 66 -102 16 -225 36 -275 44 -49
8 -160 26 -246 40 -86 13 -241 38 -345 54 -104 17 -274 44 -379 61 -104 17
-275 44 -380 61 -204 32 -339 54 -585 93 -85 14 -254 41 -375 61 -121 19 -404
64 -630 100 -225 36 -450 72 -500 80 -255 41 -480 77 -560 90 -49 8 -218 35
-375 60 -157 25 -357 57 -445 71 -88 14 -243 38 -345 55 -102 16 -225 36 -275
44 -49 8 -160 26 -246 40 -86 13 -241 38 -345 54 -104 17 -288 46 -409 66
-121 19 -292 47 -380 61 -88 14 -243 38 -345 55 -102 16 -225 36 -275 44 -153
24 -333 53 -495 79 -85 14 -270 43 -410 66 -467 74 -623 99 -845 135 -121 19
-249 40 -285 45 -36 6 -189 31 -340 55 -151 24 -392 62 -535 85 -143 23 -343
55 -445 71 -102 16 -239 38 -305 49 -66 11 -192 31 -280 45 -88 14 -203 32
-255 41 -52 8 -149 23 -215 34 -66 11 -163 26 -215 35 -52 8 -194 30 -315 50
-121 19 -305 49 -410 65 -285 46 -353 57 -555 89 -102 16 -257 41 -345 55 -88
14 -245 39 -350 56 -266 43 -361 58 -467 75 -51 8 -178 28 -283 45 -104 17
-230 37 -280 45 -332 53 -480 77 -625 100 -161 25 -236 37 -565 90 -298 48
-558 89 -695 110 -52 8 -178 28 -280 44 -257 42 -488 79 -600 96 -52 8 -221
35 -375 60 -334 54 -544 87 -720 115 -71 11 -182 29 -245 40 -110 18 -234 38
-600 95 -91 15 -289 46 -440 71 -289 46 -499 80 -715 114 -71 11 -170 28 -220
36 -49 8 -151 24 -225 35 -74 11 -142 22 -150 24 -8 2 -105 18 -215 35 -110
17 -326 51 -480 76 -300 48 -428 69 -680 109 -88 14 -214 34 -280 45 -237 38
-433 70 -595 95 -91 14 -248 40 -350 56 -102 16 -225 36 -275 44 -646 103
-849 136 -852 139 -3 3 91 14 637 76 239 27 512 58 605 69 94 12 328 39 520
60 193 22 409 47 480 56 72 8 288 33 480 54 193 22 449 52 570 66 121 14 321
37 445 50 124 14 277 32 340 40 63 8 279 33 480 55 201 22 399 45 440 50 41 6
273 32 515 60 478 54 1107 126 1440 165 116 14 388 45 605 70 217 24 494 56
615 70 121 14 321 37 445 50 124 14 277 32 340 40 63 8 279 33 480 55 201 22
417 47 480 55 63 8 279 33 480 55 201 22 399 45 440 50 81 11 865 101 1560
180 239 27 534 61 655 75 343 40 790 91 1270 145 242 28 474 54 515 60 84 11
453 53 665 75 77 9 212 24 300 35 156 20 600 71 1475 170 803 91 1224 139
1435 165 116 13 334 38 485 55 151 17 367 42 480 55 271 33 533 62 705 81 77
8 192 21 255 29 63 8 156 19 205 25 50 5 268 30 485 55 217 25 591 68 830 95
942 107 1233 141 1435 165 116 13 334 38 485 55 151 17 367 42 480 55 113 14
327 38 475 55 149 17 365 41 480 55 116 13 327 38 470 54 510 59 999 116 1018
120 4 0 11 -9 16 -21z m-23339 -4758 c63 -10 189 -31 280 -45 249 -39 389 -62
565 -90 88 -14 201 -32 250 -40 50 -8 176 -28 280 -45 105 -17 260 -41 345
-55 85 -14 283 -45 440 -70 157 -26 339 -55 405 -65 247 -40 443 -71 530 -86
50 -8 119 -20 155 -25 36 -5 173 -27 305 -49 132 -21 314 -50 405 -65 91 -14
233 -37 315 -50 83 -14 220 -36 305 -49 166 -26 639 -101 888 -141 135 -22
250 -41 557 -90 50 -8 189 -30 310 -50 349 -56 853 -136 1285 -205 63 -10 189
-30 280 -45 91 -15 190 -30 220 -35 30 -4 156 -24 280 -44 124 -20 311 -50
415 -67 105 -16 273 -43 375 -60 102 -16 227 -36 278 -44 169 -27 485 -78 877
-141 154 -24 366 -58 470 -75 105 -16 244 -38 310 -49 278 -45 444 -71 680
-109 413 -67 1136 -182 1195 -191 30 -4 170 -27 310 -49 341 -55 760 -122
1065 -171 567 -91 724 -116 1025 -164 233 -38 704 -113 885 -142 88 -14 243
-38 345 -55 102 -16 226 -36 275 -44 147 -23 330 -53 495 -79 85 -14 272 -44
415 -66 143 -23 343 -55 445 -71 102 -16 239 -38 305 -49 66 -11 190 -30 275
-44 460 -74 742 -119 975 -156 143 -23 343 -55 445 -71 102 -16 239 -38 305
-49 66 -11 190 -30 275 -44 260 -42 726 -116 890 -142 85 -13 178 -28 205 -33
28 -6 68 -12 90 -15 39 -6 156 -24 785 -125 102 -16 259 -41 350 -56 166 -26
272 -43 565 -90 88 -14 214 -34 280 -45 66 -11 192 -31 280 -45 88 -14 201
-32 250 -40 50 -8 173 -28 275 -44 102 -16 259 -41 350 -56 91 -14 219 -34
285 -45 217 -35 556 -89 780 -125 121 -20 345 -56 498 -80 153 -25 286 -45
297 -45 10 0 22 -4 25 -10 3 -5 -8 -62 -25 -127 -18 -65 -49 -188 -71 -273
-76 -293 -130 -503 -154 -596 -14 -52 -37 -138 -51 -191 -14 -54 -47 -183 -74
-288 -69 -267 -138 -538 -160 -620 -98 -374 -132 -506 -190 -735 -140 -546
-229 -882 -235 -889 -6 -5 -246 66 -605 178 -91 29 -178 56 -195 60 -16 5
-156 47 -310 95 -154 47 -325 100 -380 117 -154 47 -358 110 -375 116 -8 2
-139 43 -290 89 -328 101 -421 130 -600 185 -192 59 -780 241 -920 283 -25 8
-103 32 -175 54 -116 37 -751 232 -865 266 -25 8 -103 32 -175 55 -71 22 -285
88 -475 146 -190 58 -379 116 -420 129 -41 13 -120 38 -175 54 -252 78 -797
245 -865 267 -41 13 -122 38 -180 55 -58 18 -161 49 -230 71 -120 37 -606 186
-815 250 -55 17 -163 51 -240 75 -77 24 -311 96 -520 160 -209 64 -443 136
-520 160 -129 40 -592 182 -780 239 -296 90 -1003 307 -1272 391 -506 157
-722 223 -753 232 -37 10 -800 245 -930 286 -41 13 -120 38 -175 55 -651 199
-801 245 -865 266 -41 13 -91 28 -110 33 -19 5 -255 78 -525 161 -269 84 -533
165 -585 181 -95 30 -862 266 -1040 320 -261 80 -954 294 -1020 314 -84 27
-131 41 -620 191 -190 58 -385 119 -435 135 -49 15 -130 40 -180 55 -49 15
-124 38 -165 51 -41 13 -194 60 -340 104 -146 45 -305 94 -355 110 -49 15
-130 40 -180 55 -49 15 -124 38 -165 51 -41 13 -194 60 -340 104 -146 45 -337
104 -425 131 -88 28 -203 63 -255 79 -52 16 -192 59 -310 96 -236 73 -329 101
-375 114 -16 5 -115 35 -220 68 -194 61 -570 177 -705 217 -41 13 -178 55
-305 94 -126 39 -273 84 -325 100 -52 17 -167 52 -255 80 -197 61 -637 196
-725 223 -97 29 -169 51 -335 102 -82 26 -179 56 -215 67 -36 11 -186 57 -335
104 -148 46 -286 88 -305 93 -34 10 -214 65 -460 141 -69 22 -183 57 -255 79
-71 23 -159 50 -195 61 -83 25 -64 26 80 1z m-1997 -529 c89 -27 347 -106 572
-175 226 -70 453 -140 505 -156 52 -16 226 -69 385 -119 160 -49 367 -113 460
-141 94 -28 188 -58 210 -65 22 -8 85 -28 140 -44 136 -41 754 -231 945 -290
85 -27 200 -62 255 -79 342 -105 651 -200 785 -241 172 -54 235 -73 620 -191
146 -45 337 -104 425 -131 88 -27 203 -63 255 -79 422 -130 531 -164 575 -177
28 -8 122 -37 210 -64 88 -28 205 -64 260 -81 55 -16 134 -41 175 -54 41 -12
140 -43 220 -67 80 -25 204 -63 275 -85 72 -22 207 -64 300 -93 216 -65 602
-184 680 -209 33 -10 157 -48 275 -84 371 -114 401 -124 565 -175 88 -27 176
-54 195 -59 19 -6 139 -42 265 -81 234 -73 367 -114 510 -158 44 -13 105 -33
135 -43 30 -10 80 -25 110 -33 30 -8 127 -38 215 -65 88 -28 228 -71 310 -96
83 -26 193 -60 245 -76 52 -16 219 -68 370 -114 151 -46 343 -105 425 -131 83
-25 195 -59 250 -76 55 -17 134 -42 175 -55 66 -20 587 -180 865 -265 55 -17
134 -42 175 -55 41 -13 266 -82 500 -154 234 -72 468 -144 520 -160 52 -16
286 -88 520 -160 532 -163 607 -186 700 -215 74 -24 668 -206 865 -266 55 -17
134 -41 175 -55 41 -13 260 -80 485 -150 481 -148 513 -158 585 -180 30 -9
237 -72 460 -141 450 -139 508 -157 595 -183 33 -10 245 -75 470 -144 226 -70
453 -140 505 -156 52 -16 196 -61 320 -99 537 -166 660 -203 740 -227 47 -14
119 -37 160 -50 41 -13 237 -73 435 -134 198 -61 387 -119 420 -129 97 -31
238 -74 620 -191 198 -61 423 -131 500 -155 77 -24 156 -48 175 -53 19 -5 256
-78 525 -161 270 -83 542 -167 605 -187 63 -19 297 -91 520 -160 223 -69 450
-138 505 -155 55 -17 134 -41 175 -54 41 -13 230 -72 420 -130 190 -58 388
-119 440 -135 52 -16 293 -90 535 -165 242 -75 485 -149 540 -166 55 -17 118
-37 140 -44 22 -7 85 -27 140 -44 202 -61 634 -193 785 -240 85 -27 200 -62
255 -79 55 -17 197 -61 315 -98 239 -74 331 -102 375 -114 17 -4 82 -24 145
-44 63 -20 160 -51 215 -67 55 -17 134 -42 175 -55 139 -43 345 -106 405 -124
33 -10 164 -50 290 -89 127 -39 275 -85 330 -102 55 -17 111 -34 125 -39 14
-5 86 -27 160 -50 128 -39 207 -63 515 -158 72 -22 157 -48 190 -58 33 -10 65
-22 71 -28 6 -6 39 -76 74 -156 35 -80 83 -189 107 -243 23 -53 43 -99 43
-101 0 -3 13 -33 29 -68 32 -71 66 -148 205 -465 19 -43 50 -114 69 -158 19
-44 60 -136 90 -205 30 -69 107 -242 170 -385 63 -143 147 -334 187 -425 39
-91 80 -183 90 -205 17 -37 228 -517 306 -695 93 -216 359 -820 384 -875 13
-27 63 -142 113 -255 49 -113 116 -266 149 -340 33 -74 93 -214 134 -310 41
-96 79 -183 84 -193 6 -10 20 -41 31 -70 22 -57 223 -512 271 -617 16 -35 38
-85 48 -110 10 -25 34 -80 54 -123 20 -42 36 -79 36 -82 0 -2 11 -28 25 -57
26 -57 255 -578 337 -768 27 -63 67 -153 88 -200 41 -91 68 -153 180 -410 40
-91 105 -239 145 -330 40 -91 99 -223 130 -295 31 -71 82 -186 112 -255 31
-69 87 -197 125 -285 38 -88 76 -173 84 -189 20 -41 18 -49 -8 -33 -13 8 -106
57 -208 109 -102 53 -210 109 -240 125 -30 17 -136 72 -235 123 -99 51 -220
114 -270 140 -49 26 -148 78 -220 115 -281 146 -383 199 -450 235 -38 20 -142
74 -230 120 -88 45 -200 104 -250 130 -112 59 -290 152 -437 229 -62 32 -169
88 -238 123 -231 121 -344 180 -470 246 -69 35 -170 88 -225 117 -55 29 -158
83 -230 120 -71 37 -175 91 -230 120 -102 53 -252 131 -450 235 -60 32 -177
92 -260 135 -82 43 -193 100 -245 128 -52 27 -156 81 -230 120 -74 38 -166 86
-205 107 -38 20 -137 72 -220 115 -82 43 -190 99 -240 125 -49 26 -144 75
-210 110 -66 34 -169 88 -230 120 -60 32 -177 92 -260 135 -82 43 -188 98
-235 123 -47 24 -168 87 -270 140 -102 52 -194 100 -205 107 -12 7 -106 57
-210 110 -105 54 -217 112 -250 130 -33 18 -114 61 -180 95 -66 35 -169 88
-230 120 -60 32 -177 92 -260 135 -82 43 -193 100 -245 128 -52 27 -160 83
-240 125 -80 41 -199 102 -265 137 -66 34 -172 89 -235 122 -63 33 -178 93
-255 134 -253 132 -419 219 -485 252 -36 17 -67 34 -70 37 -3 3 -70 38 -150
79 -80 41 -176 91 -215 111 -38 21 -133 70 -210 110 -77 40 -180 94 -230 120
-49 26 -153 80 -230 120 -77 40 -196 102 -265 138 -206 109 -401 210 -470 245
-36 17 -67 34 -70 37 -3 3 -70 38 -150 79 -80 41 -176 91 -215 111 -38 21
-133 70 -210 110 -77 40 -180 94 -230 120 -49 26 -153 80 -230 120 -77 40
-196 102 -265 138 -206 109 -401 210 -470 245 -36 17 -67 34 -70 37 -3 3 -70
38 -150 79 -80 41 -176 91 -215 111 -38 21 -133 70 -210 110 -77 40 -180 94
-230 120 -49 26 -153 80 -230 120 -77 40 -196 102 -265 138 -206 109 -401 210
-470 245 -36 17 -67 34 -70 37 -3 3 -70 38 -150 79 -80 41 -176 91 -215 111
-38 21 -133 70 -210 110 -77 40 -180 94 -230 120 -49 26 -153 80 -230 120 -77
40 -196 102 -265 138 -206 109 -401 210 -470 245 -36 17 -67 34 -70 37 -3 3
-70 38 -150 79 -80 41 -176 91 -215 111 -38 21 -133 70 -210 110 -77 40 -180
94 -230 120 -49 26 -153 80 -230 120 -77 40 -196 102 -265 138 -206 109 -401
210 -470 245 -36 17 -67 34 -70 37 -3 3 -70 38 -150 79 -80 41 -176 91 -215
111 -38 21 -133 70 -210 110 -77 40 -180 94 -230 120 -49 26 -153 80 -230 120
-77 40 -196 102 -265 138 -206 109 -401 210 -470 245 -36 17 -67 34 -70 37 -3
3 -70 38 -150 79 -80 41 -176 91 -215 111 -38 21 -133 70 -210 110 -77 40
-180 94 -230 120 -49 26 -153 80 -230 120 -77 40 -196 102 -265 138 -206 109
-401 210 -470 245 -36 17 -67 34 -70 37 -3 3 -70 38 -150 79 -80 41 -176 91
-215 111 -38 21 -133 70 -210 110 -77 40 -180 94 -230 120 -49 26 -153 80
-230 120 -77 40 -196 102 -265 138 -206 109 -401 210 -470 245 -36 17 -67 34
-70 37 -3 3 -70 38 -150 79 -80 41 -176 91 -215 111 -38 21 -133 70 -210 110
-77 40 -180 94 -230 120 -49 26 -153 80 -230 120 -77 40 -196 102 -265 138
-206 109 -401 210 -470 245 -36 17 -67 34 -70 37 -3 3 -70 38 -150 79 -80 41
-176 91 -215 111 -38 21 -133 70 -210 110 -77 40 -180 94 -230 120 -49 26
-153 80 -230 120 -77 40 -196 102 -265 138 -206 109 -401 210 -470 245 -36 17
-67 34 -70 37 -3 3 -70 38 -150 79 -80 41 -176 91 -215 111 -38 21 -133 70
-210 110 -77 40 -180 94 -230 120 -49 26 -153 80 -230 120 -77 40 -196 102
-265 138 -206 109 -401 210 -470 245 -36 17 -67 34 -70 37 -3 3 -75 41 -160
84 -85 44 -177 91 -205 106 -27 15 -122 64 -210 110 -88 45 -187 97 -220 115
-33 18 -145 76 -250 130 -104 54 -212 110 -240 125 -47 26 -137 73 -445 233
-69 35 -154 80 -190 99 -90 49 -328 172 -560 291 -190 96 -625 322 -805 417
-151 80 -831 435 -1245 650 -359 187 -699 364 -805 420 -49 26 -148 78 -220
115 -71 37 -132 69 -134 71 -10 9 21 1 172 -45z m-1848 -286 c144 -76 439
-230 700 -365 88 -46 194 -101 235 -123 41 -22 136 -71 210 -110 74 -38 173
-90 220 -114 47 -25 146 -77 220 -115 149 -78 316 -165 455 -238 50 -26 153
-80 230 -120 302 -157 413 -215 495 -258 47 -24 146 -76 220 -115 74 -38 173
-90 220 -114 47 -25 146 -77 220 -115 149 -78 316 -165 455 -238 50 -26 153
-80 230 -120 302 -157 413 -215 495 -258 47 -24 146 -76 220 -115 74 -38 173
-90 220 -114 47 -25 146 -77 220 -115 149 -78 316 -165 455 -238 50 -26 153
-80 230 -120 302 -157 413 -215 495 -258 47 -24 146 -76 220 -115 74 -38 173
-90 220 -114 47 -25 146 -77 220 -115 149 -78 316 -165 455 -238 50 -26 153
-80 230 -120 302 -157 413 -215 495 -258 47 -24 146 -76 220 -115 74 -38 173
-90 220 -114 47 -25 146 -77 220 -115 149 -78 316 -165 455 -238 50 -26 153
-80 230 -120 302 -157 413 -215 495 -258 47 -24 146 -76 220 -115 74 -38 173
-90 220 -114 47 -25 146 -77 220 -115 149 -78 316 -165 455 -238 50 -26 153
-80 230 -120 302 -157 413 -215 495 -258 47 -24 146 -76 220 -115 74 -38 173
-90 220 -114 47 -25 146 -77 220 -115 149 -78 316 -165 455 -238 50 -26 153
-80 230 -120 302 -157 413 -215 495 -258 47 -24 146 -76 220 -115 74 -38 173
-90 220 -114 47 -25 146 -77 220 -115 149 -78 316 -165 455 -238 50 -26 153
-80 230 -120 302 -157 413 -215 495 -258 47 -24 146 -76 220 -115 74 -38 173
-90 220 -114 47 -25 146 -77 220 -115 149 -78 316 -165 455 -238 50 -26 153
-80 230 -120 302 -157 413 -215 495 -258 47 -24 146 -76 220 -115 74 -38 173
-90 220 -114 47 -25 146 -77 220 -115 149 -78 316 -165 455 -238 50 -26 153
-80 230 -120 302 -157 413 -215 495 -258 47 -24 146 -76 220 -115 74 -38 173
-90 220 -114 47 -25 146 -77 220 -115 149 -78 316 -165 455 -238 50 -26 153
-80 230 -120 77 -40 185 -96 240 -125 95 -50 174 -91 480 -250 72 -37 168 -88
215 -112 47 -25 146 -77 220 -115 194 -101 355 -185 435 -228 39 -21 147 -77
240 -125 94 -48 206 -107 250 -130 44 -23 141 -74 215 -112 248 -129 394 -205
480 -250 47 -25 146 -77 220 -115 194 -101 355 -185 435 -228 39 -21 147 -77
240 -125 94 -48 206 -107 250 -130 44 -23 141 -74 215 -112 248 -129 394 -205
480 -250 47 -25 146 -77 220 -115 194 -101 355 -185 435 -228 39 -21 147 -77
240 -125 94 -48 206 -107 250 -130 44 -23 141 -74 215 -112 248 -129 394 -205
480 -250 47 -25 146 -77 220 -115 74 -39 191 -100 260 -136 69 -37 164 -85
213 -109 48 -24 87 -46 87 -51 0 -4 -25 -69 -56 -143 -31 -73 -78 -186 -104
-249 -50 -122 -182 -431 -230 -540 -15 -36 -52 -121 -80 -190 -29 -69 -70
-164 -91 -213 -21 -48 -39 -89 -39 -91 0 -5 -260 -619 -286 -676 -9 -19 -84
-192 -167 -385 -163 -380 -194 -451 -257 -595 -23 -52 -61 -140 -85 -195 -23
-55 -68 -158 -100 -230 -32 -71 -73 -168 -91 -213 -19 -46 -45 -107 -58 -135
-13 -29 -59 -131 -101 -227 -42 -96 -85 -193 -95 -215 -10 -22 -37 -83 -60
-135 -75 -168 -387 -862 -437 -970 -19 -41 -42 -91 -50 -110 -9 -19 -40 -86
-69 -149 -30 -62 -54 -115 -54 -117 0 -6 -206 -446 -460 -984 -83 -173 -457
-922 -510 -1018 -22 -41 -62 -115 -89 -165 -68 -130 -85 -157 -95 -157 -4 0
-65 56 -135 124 -69 68 -143 139 -163 158 -20 19 -118 112 -217 208 -100 95
-191 182 -204 192 -12 11 -69 65 -127 121 -125 121 -404 384 -434 410 -11 10
-52 49 -91 86 -38 37 -189 179 -335 317 -146 137 -299 281 -340 320 -41 39
-87 82 -101 95 -37 33 -277 259 -369 345 -41 40 -91 86 -110 104 -19 18 -89
83 -154 144 -66 61 -129 120 -141 131 -155 145 -324 303 -415 389 -41 39 -169
159 -285 266 -115 107 -219 204 -231 215 -30 29 -285 268 -298 280 -29 26
-148 136 -216 199 -41 39 -109 102 -150 140 -41 39 -109 102 -150 140 -42 39
-111 105 -155 146 -44 41 -111 104 -150 140 -65 60 -326 302 -351 325 -6 6
-66 62 -134 125 -68 63 -128 120 -135 125 -14 13 -139 130 -235 219 -41 39
-102 96 -135 126 -33 30 -121 112 -195 181 -74 69 -164 153 -199 185 -35 32
-74 68 -85 79 -12 11 -84 78 -161 149 -77 71 -176 163 -220 204 -107 101 -188
176 -260 242 -33 30 -122 113 -197 183 -76 71 -150 140 -165 154 -15 14 -53
49 -83 77 -42 38 -391 362 -476 441 -6 5 -40 37 -75 70 -36 33 -94 87 -129
119 -36 33 -94 87 -130 120 -36 34 -126 117 -200 186 -160 148 -239 222 -335
310 -38 36 -97 91 -130 121 -69 65 -176 163 -290 270 -80 74 -287 265 -336
310 -15 13 -73 68 -131 121 -57 54 -115 107 -129 119 -13 11 -53 48 -89 82
-36 34 -121 114 -190 177 -69 63 -132 122 -140 130 -8 8 -42 40 -75 69 -33 30
-94 87 -136 125 -41 39 -109 103 -150 141 -131 123 -301 279 -323 298 -12 10
-46 42 -76 71 -30 28 -174 162 -320 296 -424 392 -517 477 -540 500 -8 8 -40
38 -70 65 -30 28 -109 100 -175 162 -66 61 -131 121 -145 133 -14 12 -52 47
-85 78 -33 31 -90 84 -125 116 -36 33 -94 87 -130 120 -36 34 -126 117 -200
186 -74 69 -157 146 -185 172 -27 25 -61 56 -75 68 -14 12 -52 47 -85 78 -33
32 -112 104 -175 162 -63 58 -122 112 -130 120 -8 8 -42 40 -75 69 -56 51 -95
87 -286 266 -41 39 -124 115 -184 170 -60 55 -139 128 -175 162 -36 34 -75 70
-86 80 -20 17 -166 151 -319 293 -38 36 -92 85 -119 110 -28 25 -86 79 -130
120 -45 42 -110 103 -146 135 -36 33 -94 87 -130 121 -36 34 -159 148 -275
254 -115 106 -239 221 -275 254 -56 52 -140 129 -295 272 -16 15 -82 75 -145
134 -63 59 -241 223 -395 365 -424 391 -504 465 -575 531 -36 33 -92 86 -125
116 -222 204 -890 820 -985 908 -101 94 -693 640 -895 826 -16 15 -82 75 -145
134 -63 59 -209 194 -325 300 -115 106 -239 221 -275 254 -36 34 -90 83 -120
110 -30 27 -108 99 -174 160 -65 61 -127 118 -136 126 -9 8 -68 62 -130 120
-62 58 -118 110 -125 115 -6 6 -42 39 -80 75 -39 36 -122 112 -184 170 -63 58
-122 112 -131 120 -9 8 -43 39 -76 69 -32 30 -91 84 -129 120 -59 55 -194 180
-306 282 -15 13 -77 71 -139 129 -62 58 -121 112 -131 121 -65 56 -258 235
-419 386 -36 34 -74 70 -86 80 -17 15 -88 79 -238 218 -6 6 -94 86 -196 180
-102 93 -192 176 -200 185 -8 8 -40 37 -70 65 -86 77 -296 271 -395 365 -118
112 -323 302 -525 485 -30 28 -66 61 -80 75 -14 14 -72 68 -130 120 -58 52
-107 97 -110 100 -14 14 -157 146 -254 235 -60 55 -136 126 -170 158 l-61 59
170 -88 c94 -48 206 -106 250 -129z"/>
<path d="M64512 31443 c8 -10 59 -74 113 -143 55 -69 102 -127 105 -130 3 -3
45 -52 95 -110 530 -620 1165 -1238 1895 -1844 58 -48 114 -95 125 -104 11
-10 76 -62 145 -116 69 -55 154 -123 190 -152 36 -28 139 -107 230 -175 91
-68 170 -127 175 -131 38 -31 184 -137 335 -243 546 -386 1056 -710 1600
-1018 213 -120 455 -248 683 -361 191 -94 447 -216 453 -216 2 0 29 -12 60
-26 109 -50 220 -97 369 -156 229 -90 275 -108 275 -102 0 13 -294 372 -445
543 -16 18 -34 39 -40 45 -354 401 -874 914 -1346 1326 -194 171 -214 187
-394 339 -11 9 -54 43 -95 76 -41 33 -77 62 -80 65 -6 7 -226 181 -290 230
-25 19 -47 37 -50 40 -8 9 -309 234 -470 352 -311 226 -764 533 -1050 712 -52
33 -125 79 -162 103 -37 23 -70 43 -72 43 -3 0 -64 36 -136 80 -634 387 -1506
822 -2109 1051 -116 44 -130 47 -109 22z"/>
<path d="M61597 26586 c8 -13 97 -110 307 -335 108 -115 742 -749 876 -876
136 -128 450 -418 525 -485 133 -118 211 -186 221 -195 6 -5 39 -35 74 -65 35
-30 68 -60 74 -65 167 -156 930 -782 1431 -1176 168 -131 214 -167 509 -392
100 -76 195 -149 212 -162 17 -14 91 -69 165 -124 74 -55 139 -104 144 -108
21 -18 560 -404 790 -567 393 -277 1125 -772 1392 -940 43 -27 118 -76 167
-108 48 -32 90 -58 92 -58 2 0 36 -21 76 -47 40 -27 82 -53 93 -60 11 -6 56
-34 100 -61 548 -335 907 -542 1420 -817 258 -139 1059 -535 1081 -535 53 0
-1067 1130 -1551 1565 -60 55 -112 102 -115 105 -15 16 -339 302 -505 445 -49
43 -101 87 -115 99 -14 12 -108 91 -210 176 -102 85 -187 157 -190 160 -12 12
-742 597 -850 680 -25 19 -50 39 -56 45 -6 5 -62 48 -124 95 -62 47 -144 110
-184 141 -135 105 -721 544 -831 622 -60 43 -121 87 -135 97 -45 34 -157 114
-266 190 -59 41 -133 93 -163 116 -31 22 -105 74 -164 115 -59 41 -140 97
-180 125 -186 130 -710 482 -952 639 -66 43 -142 92 -170 110 -46 31 -278 177
-426 270 -35 22 -100 61 -144 87 -44 26 -87 52 -95 58 -98 65 -667 394 -955
552 -369 203 -414 226 -755 397 -392 197 -623 305 -613 287z"/>
</g>
</svg>
